<mxfile host="Electron" agent="Mozilla/5.0 (Windows NT 10.0; Win64; x64) AppleWebKit/537.36 (KHTML, like Gecko) draw.io/27.0.9 Chrome/134.0.6998.205 Electron/35.4.0 Safari/537.36" version="27.0.9">
  <diagram name="Page-1" id="QjPxDV6EFfYowPBXu3Lf">
    <mxGraphModel dx="2924" dy="3228" grid="1" gridSize="10" guides="1" tooltips="1" connect="1" arrows="1" fold="1" page="0" pageScale="1" pageWidth="827" pageHeight="1169" math="0" shadow="0">
      <root>
        <mxCell id="0" />
        <mxCell id="1" parent="0" />
        <mxCell id="10" value="" style="edgeStyle=none;html=1;strokeWidth=2;" parent="1" source="2" target="9" edge="1">
          <mxGeometry relative="1" as="geometry" />
        </mxCell>
        <mxCell id="2" value="setEngineCapacity (int driverCount, string driverName[],&lt;div&gt;int driverAge[], char license[], int engineCapacity[])&lt;/div&gt;" style="strokeWidth=2;html=1;shape=mxgraph.flowchart.terminator;whiteSpace=wrap;fillColor=#d80073;fontColor=#ffffff;strokeColor=#A50040;shadow=1;" parent="1" vertex="1">
          <mxGeometry x="250" y="-870" width="320" height="150" as="geometry" />
        </mxCell>
        <mxCell id="WJH1T3URD3kHe13jxlDL-70" value="" style="edgeStyle=orthogonalEdgeStyle;rounded=0;orthogonalLoop=1;jettySize=auto;html=1;" edge="1" parent="1" source="9" target="58">
          <mxGeometry relative="1" as="geometry" />
        </mxCell>
        <mxCell id="WJH1T3URD3kHe13jxlDL-71" value="False" style="edgeLabel;html=1;align=center;verticalAlign=middle;resizable=0;points=[];" vertex="1" connectable="0" parent="WJH1T3URD3kHe13jxlDL-70">
          <mxGeometry x="-0.0839" y="-2" relative="1" as="geometry">
            <mxPoint x="50" y="2" as="offset" />
          </mxGeometry>
        </mxCell>
        <mxCell id="WJH1T3URD3kHe13jxlDL-75" value="" style="edgeStyle=orthogonalEdgeStyle;rounded=0;orthogonalLoop=1;jettySize=auto;html=1;" edge="1" parent="1" source="9" target="WJH1T3URD3kHe13jxlDL-74">
          <mxGeometry relative="1" as="geometry" />
        </mxCell>
        <mxCell id="WJH1T3URD3kHe13jxlDL-81" value="True" style="edgeLabel;html=1;align=center;verticalAlign=middle;resizable=0;points=[];" vertex="1" connectable="0" parent="WJH1T3URD3kHe13jxlDL-75">
          <mxGeometry x="-0.1202" y="-1" relative="1" as="geometry">
            <mxPoint x="-52" y="-1" as="offset" />
          </mxGeometry>
        </mxCell>
        <mxCell id="9" value="&lt;font style=&quot;color: rgb(255, 255, 255);&quot;&gt;i = 0,&lt;br&gt;i &amp;lt; driverCount,&lt;br&gt;i++&lt;/font&gt;" style="rhombus;whiteSpace=wrap;html=1;strokeWidth=2;fillColor=#6a00ff;fontColor=#FFFFFF;strokeColor=#3700CC;shadow=1;" parent="1" vertex="1">
          <mxGeometry x="350.84" y="-615" width="115" height="115" as="geometry" />
        </mxCell>
        <mxCell id="14" value="" style="edgeStyle=none;html=1;strokeWidth=2;" parent="1" source="11" target="13" edge="1">
          <mxGeometry relative="1" as="geometry" />
        </mxCell>
        <mxCell id="11" value="&lt;span&gt;&lt;font style=&quot;color: rgb(255, 255, 255);&quot;&gt;displayEngineCapacities (driverAge[i], license[i]&lt;/font&gt;&lt;/span&gt;" style="shape=process;whiteSpace=wrap;html=1;backgroundOutline=1;strokeWidth=2;fillColor=#0050ef;fontColor=#ffffff;strokeColor=#001DBC;shadow=1;" parent="1" vertex="1">
          <mxGeometry x="530" y="-238.75" width="186.66" height="60" as="geometry" />
        </mxCell>
        <mxCell id="16" value="" style="edgeStyle=none;html=1;strokeWidth=2;" parent="1" source="13" target="15" edge="1">
          <mxGeometry relative="1" as="geometry" />
        </mxCell>
        <mxCell id="26" value="" style="edgeStyle=none;html=1;entryX=0.5;entryY=0;entryDx=0;entryDy=0;strokeWidth=2;" parent="1" source="13" target="27" edge="1">
          <mxGeometry relative="1" as="geometry">
            <mxPoint x="845.08" y="-51.25" as="targetPoint" />
          </mxGeometry>
        </mxCell>
        <mxCell id="13" value="&lt;span style=&quot;&quot;&gt;&lt;font style=&quot;color: rgb(255, 255, 255);&quot;&gt;driverAge[i] &amp;lt; 13&lt;/font&gt;&lt;/span&gt;" style="rhombus;whiteSpace=wrap;html=1;strokeWidth=2;fillColor=#1ba1e2;fontColor=#FFFFFF;strokeColor=#006EAF;shadow=1;" parent="1" vertex="1">
          <mxGeometry x="786.33" y="-267.5" width="117.5" height="117.5" as="geometry" />
        </mxCell>
        <mxCell id="18" value="" style="edgeStyle=none;html=1;strokeWidth=2;" parent="1" source="15" target="17" edge="1">
          <mxGeometry relative="1" as="geometry" />
        </mxCell>
        <mxCell id="15" value="Display:&lt;br&gt;&quot;Driver under 13: Go-Kart mus be under 200cc&quot;&lt;br&gt;&quot;Defaulting to 120cc&quot;" style="shape=parallelogram;perimeter=parallelogramPerimeter;whiteSpace=wrap;html=1;fixedSize=1;strokeWidth=2;fillColor=#008a00;fontColor=#ffffff;strokeColor=#005700;shadow=1;" parent="1" vertex="1">
          <mxGeometry x="982.58" y="-238.75" width="290.42" height="60" as="geometry" />
        </mxCell>
        <mxCell id="WJH1T3URD3kHe13jxlDL-85" style="edgeStyle=orthogonalEdgeStyle;rounded=0;orthogonalLoop=1;jettySize=auto;html=1;exitX=1;exitY=0.5;exitDx=0;exitDy=0;entryX=0.5;entryY=1;entryDx=0;entryDy=0;" edge="1" parent="1" source="17" target="11">
          <mxGeometry relative="1" as="geometry">
            <Array as="points">
              <mxPoint x="2276" y="-209" />
              <mxPoint x="2276" y="330" />
              <mxPoint x="623" y="330" />
            </Array>
          </mxGeometry>
        </mxCell>
        <mxCell id="17" value="engineCapacity[i] =&lt;br&gt;120" style="whiteSpace=wrap;html=1;strokeWidth=2;fillColor=#fa6800;fontColor=#FFFFFF;strokeColor=#C73500;shadow=1;" parent="1" vertex="1">
          <mxGeometry x="1393" y="-238.75" width="120" height="60" as="geometry" />
        </mxCell>
        <mxCell id="23" value="" style="edgeStyle=none;html=1;strokeWidth=2;" parent="1" target="22" edge="1">
          <mxGeometry relative="1" as="geometry">
            <mxPoint x="903.83" y="5" as="sourcePoint" />
          </mxGeometry>
        </mxCell>
        <mxCell id="29" value="" style="edgeStyle=none;html=1;strokeWidth=2;" parent="1" source="22" target="28" edge="1">
          <mxGeometry relative="1" as="geometry" />
        </mxCell>
        <mxCell id="22" value="Prompt:&lt;br&gt;&quot;Choose your desired engine capacity (1 - 2): &quot;" style="shape=parallelogram;perimeter=parallelogramPerimeter;whiteSpace=wrap;html=1;fixedSize=1;strokeWidth=2;fillColor=#008a00;fontColor=#ffffff;strokeColor=#005700;shadow=1;" parent="1" vertex="1">
          <mxGeometry x="981.33" y="-25" width="286.66" height="60" as="geometry" />
        </mxCell>
        <mxCell id="31" value="" style="edgeStyle=none;html=1;strokeWidth=2;" parent="1" source="27" target="30" edge="1">
          <mxGeometry relative="1" as="geometry" />
        </mxCell>
        <mxCell id="27" value="license != &#39;Y&#39;" style="rhombus;whiteSpace=wrap;html=1;strokeWidth=2;fillColor=#1ba1e2;fontColor=#ffffff;strokeColor=#006EAF;shadow=1;" parent="1" vertex="1">
          <mxGeometry x="787.58" y="-52.5" width="115" height="115" as="geometry" />
        </mxCell>
        <mxCell id="38" value="" style="edgeStyle=none;html=1;strokeWidth=2;" parent="1" source="28" target="36" edge="1">
          <mxGeometry relative="1" as="geometry" />
        </mxCell>
        <mxCell id="28" value="engineCapacity[i] =&lt;br&gt;getValidIntegerInput(&quot;engine capacity&quot;, 1, 2)" style="whiteSpace=wrap;html=1;strokeWidth=2;fillColor=#fa6800;fontColor=#FFFFFF;strokeColor=#C73500;shadow=1;" parent="1" vertex="1">
          <mxGeometry x="1323" y="-25" width="260" height="60" as="geometry" />
        </mxCell>
        <mxCell id="30" value="license == &#39;Y&#39;" style="rhombus;whiteSpace=wrap;html=1;strokeWidth=2;fillColor=#1ba1e2;fontColor=#ffffff;strokeColor=#006EAF;shadow=1;" parent="1" vertex="1">
          <mxGeometry x="787.58" y="142.5" width="115" height="115" as="geometry" />
        </mxCell>
        <mxCell id="32" value="" style="edgeStyle=none;html=1;strokeWidth=2;" parent="1" target="34" edge="1">
          <mxGeometry relative="1" as="geometry">
            <mxPoint x="903.83" y="200" as="sourcePoint" />
          </mxGeometry>
        </mxCell>
        <mxCell id="33" value="" style="edgeStyle=none;html=1;strokeWidth=2;" parent="1" source="34" target="35" edge="1">
          <mxGeometry relative="1" as="geometry" />
        </mxCell>
        <mxCell id="34" value="Prompt:&lt;br&gt;&quot;Choose your desired engine capacity (1 - 3): &quot;" style="shape=parallelogram;perimeter=parallelogramPerimeter;whiteSpace=wrap;html=1;fixedSize=1;strokeWidth=2;fillColor=#008a00;fontColor=#ffffff;strokeColor=#005700;shadow=1;" parent="1" vertex="1">
          <mxGeometry x="981.33" y="170" width="286.66" height="60" as="geometry" />
        </mxCell>
        <mxCell id="37" value="" style="edgeStyle=none;html=1;strokeWidth=2;" parent="1" source="35" target="36" edge="1">
          <mxGeometry relative="1" as="geometry" />
        </mxCell>
        <mxCell id="35" value="engineCapacity[i] =&lt;br&gt;getValidIntegerInput(&quot;engine capacity&quot;, 1, 3)" style="whiteSpace=wrap;html=1;strokeWidth=2;fillColor=#fa6800;fontColor=#FFFFFF;strokeColor=#C73500;shadow=1;" parent="1" vertex="1">
          <mxGeometry x="1323" y="170" width="260" height="60" as="geometry" />
        </mxCell>
        <mxCell id="41" value="" style="edgeStyle=none;html=1;strokeWidth=2;" parent="1" source="36" edge="1">
          <mxGeometry relative="1" as="geometry">
            <mxPoint x="1683" y="107.5" as="targetPoint" />
          </mxGeometry>
        </mxCell>
        <mxCell id="36" value="engineCapacity[i]" style="whiteSpace=wrap;html=1;strokeWidth=2;fillColor=#1ba1e2;fontColor=#ffffff;strokeColor=#006EAF;shadow=1;" parent="1" vertex="1">
          <mxGeometry x="1393" y="77.5" width="120" height="60" as="geometry" />
        </mxCell>
        <mxCell id="WJH1T3URD3kHe13jxlDL-82" value="" style="edgeStyle=orthogonalEdgeStyle;rounded=0;orthogonalLoop=1;jettySize=auto;html=1;" edge="1" parent="1" source="39" target="42">
          <mxGeometry relative="1" as="geometry" />
        </mxCell>
        <mxCell id="WJH1T3URD3kHe13jxlDL-83" value="True" style="edgeLabel;html=1;align=center;verticalAlign=middle;resizable=0;points=[];" vertex="1" connectable="0" parent="WJH1T3URD3kHe13jxlDL-82">
          <mxGeometry x="-0.1099" y="1" relative="1" as="geometry">
            <mxPoint as="offset" />
          </mxGeometry>
        </mxCell>
        <mxCell id="39" value="= 1" style="rhombus;whiteSpace=wrap;html=1;strokeWidth=2;fillColor=#1ba1e2;fontColor=#ffffff;strokeColor=#006EAF;shadow=1;" parent="1" vertex="1">
          <mxGeometry x="1683" y="67.5" width="80" height="80" as="geometry" />
        </mxCell>
        <mxCell id="WJH1T3URD3kHe13jxlDL-88" style="edgeStyle=orthogonalEdgeStyle;rounded=0;orthogonalLoop=1;jettySize=auto;html=1;exitX=0.5;exitY=1;exitDx=0;exitDy=0;" edge="1" parent="1" source="42">
          <mxGeometry relative="1" as="geometry">
            <mxPoint x="1722" y="330" as="targetPoint" />
          </mxGeometry>
        </mxCell>
        <mxCell id="42" value="engineCapacity[i] = 120" style="whiteSpace=wrap;html=1;strokeWidth=2;fillColor=#fa6800;fontColor=#FFFFFF;strokeColor=#C73500;shadow=1;" parent="1" vertex="1">
          <mxGeometry x="1654.33" y="207.5" width="136.67" height="60" as="geometry" />
        </mxCell>
        <mxCell id="44" value="= 2" style="rhombus;whiteSpace=wrap;html=1;strokeWidth=2;fillColor=#1ba1e2;fontColor=#ffffff;strokeColor=#006EAF;shadow=1;" parent="1" vertex="1">
          <mxGeometry x="1863" y="67.5" width="80" height="80" as="geometry" />
        </mxCell>
        <mxCell id="WJH1T3URD3kHe13jxlDL-87" style="edgeStyle=orthogonalEdgeStyle;rounded=0;orthogonalLoop=1;jettySize=auto;html=1;exitX=0.5;exitY=1;exitDx=0;exitDy=0;" edge="1" parent="1" source="46">
          <mxGeometry relative="1" as="geometry">
            <mxPoint x="1904" y="330" as="targetPoint" />
          </mxGeometry>
        </mxCell>
        <mxCell id="46" value="engineCapacity[i] = 200" style="whiteSpace=wrap;html=1;strokeWidth=2;fillColor=#fa6800;fontColor=#FFFFFF;strokeColor=#C73500;shadow=1;" parent="1" vertex="1">
          <mxGeometry x="1832" y="207.5" width="143.33" height="60" as="geometry" />
        </mxCell>
        <mxCell id="WJH1T3URD3kHe13jxlDL-86" style="edgeStyle=orthogonalEdgeStyle;rounded=0;orthogonalLoop=1;jettySize=auto;html=1;exitX=0.5;exitY=1;exitDx=0;exitDy=0;" edge="1" parent="1">
          <mxGeometry relative="1" as="geometry">
            <mxPoint x="2101" y="330" as="targetPoint" />
            <mxPoint x="2100.33" y="137.5" as="sourcePoint" />
          </mxGeometry>
        </mxCell>
        <mxCell id="50" value="engineCapacity[i] = 270" style="whiteSpace=wrap;html=1;strokeWidth=2;fillColor=#fa6800;fontColor=#FFFFFF;strokeColor=#C73500;shadow=1;" parent="1" vertex="1">
          <mxGeometry x="2026.33" y="77.5" width="150" height="60" as="geometry" />
        </mxCell>
        <mxCell id="58" value="End" style="strokeWidth=2;html=1;shape=mxgraph.flowchart.terminator;whiteSpace=wrap;fillColor=#d80073;fontColor=#ffffff;strokeColor=#A50040;shadow=1;" parent="1" vertex="1">
          <mxGeometry x="170" y="-440" width="66.67" height="52.5" as="geometry" />
        </mxCell>
        <mxCell id="67" value="False" style="edgeStyle=none;orthogonalLoop=1;jettySize=auto;html=1;exitX=1;exitY=0.5;exitDx=0;exitDy=0;entryX=0;entryY=0.5;entryDx=0;entryDy=0;strokeWidth=2;" parent="1" source="39" target="44" edge="1">
          <mxGeometry width="100" relative="1" as="geometry">
            <mxPoint x="1756.33" y="117.5" as="sourcePoint" />
            <mxPoint x="1856.33" y="117.5" as="targetPoint" />
            <Array as="points" />
          </mxGeometry>
        </mxCell>
        <mxCell id="69" value="False" style="edgeStyle=none;orthogonalLoop=1;jettySize=auto;html=1;exitX=1;exitY=0.5;exitDx=0;exitDy=0;entryX=0;entryY=0.5;entryDx=0;entryDy=0;entryPerimeter=0;strokeWidth=2;" parent="1" target="50" edge="1">
          <mxGeometry width="100" relative="1" as="geometry">
            <mxPoint x="1943" y="107.30000000000001" as="sourcePoint" />
            <mxPoint x="2023" y="107.30000000000001" as="targetPoint" />
            <Array as="points" />
          </mxGeometry>
        </mxCell>
        <mxCell id="70" value="True" style="edgeStyle=none;orthogonalLoop=1;jettySize=auto;html=1;exitX=0.5;exitY=1;exitDx=0;exitDy=0;entryX=0.5;entryY=0;entryDx=0;entryDy=0;strokeWidth=2;" parent="1" edge="1">
          <mxGeometry width="100" relative="1" as="geometry">
            <mxPoint x="1902.8000000000002" y="147.5" as="sourcePoint" />
            <mxPoint x="1902.8000000000002" y="207.5" as="targetPoint" />
            <Array as="points" />
          </mxGeometry>
        </mxCell>
        <mxCell id="WJH1T3URD3kHe13jxlDL-79" value="" style="edgeStyle=orthogonalEdgeStyle;rounded=0;orthogonalLoop=1;jettySize=auto;html=1;" edge="1" parent="1" source="WJH1T3URD3kHe13jxlDL-74" target="WJH1T3URD3kHe13jxlDL-78">
          <mxGeometry relative="1" as="geometry" />
        </mxCell>
        <mxCell id="WJH1T3URD3kHe13jxlDL-74" value="Display:&lt;div&gt;&quot;Driver: &quot;&lt;/div&gt;" style="shape=parallelogram;perimeter=parallelogramPerimeter;whiteSpace=wrap;html=1;fixedSize=1;fillColor=#008a00;strokeColor=#005700;fontColor=#ffffff;strokeWidth=2;shadow=1;" vertex="1" parent="1">
          <mxGeometry x="539.6700000000001" y="-440" width="166.66" height="60" as="geometry" />
        </mxCell>
        <mxCell id="WJH1T3URD3kHe13jxlDL-80" value="" style="edgeStyle=orthogonalEdgeStyle;rounded=0;orthogonalLoop=1;jettySize=auto;html=1;" edge="1" parent="1" source="WJH1T3URD3kHe13jxlDL-78" target="11">
          <mxGeometry relative="1" as="geometry" />
        </mxCell>
        <mxCell id="WJH1T3URD3kHe13jxlDL-78" value="Read:&lt;div&gt;driverName[i]&lt;/div&gt;" style="whiteSpace=wrap;html=1;strokeWidth=2;fillColor=#fa6800;fontColor=#FFFFFF;strokeColor=#C73500;shadow=1;" vertex="1" parent="1">
          <mxGeometry x="543.33" y="-342.5" width="160" height="60" as="geometry" />
        </mxCell>
      </root>
    </mxGraphModel>
  </diagram>
</mxfile>
